# Exported from ProBuilder
# http://www.procore3d.com/probuilder
# 17.12.2018 15:46:19

mtllib ./AvatarMeshCollider.mtl
o AvatarMeshCollider

g AvatarMeshCollider
v 0.0559799 -0.3697216 -0.05969246
v -0.05392201 -0.3697216 -0.05969246
v 0.0559799 -0.2770716 -0.0005790495
v -0.05392201 -0.2770716 -0.0005790495
v -0.05392201 -0.3697216 -0.05969246
v -0.05392201 -0.3106082 -0.1523425
v -0.05392201 -0.2770716 -0.0005790495
v -0.05392201 -0.2179582 -0.09322912
v -0.05392201 -0.3106082 -0.1523425
v 0.0559799 -0.3106082 -0.1523425
v -0.05392201 -0.2179582 -0.09322912
v 0.0559799 -0.2179582 -0.09322912
v 0.0559799 -0.3106082 -0.1523425
v 0.0559799 -0.3697216 -0.05969246
v 0.0559799 -0.2179582 -0.09322912
v 0.0559799 -0.2770716 -0.0005790495
v 0.05425556 0.3323328 0.1182932
v -0.05425557 0.3323328 0.1182932
v 0.05425556 0.333591 0.0585026
v -0.05425557 0.333591 0.0585026
v 0.0559799 -0.3106082 -0.1523425
v -0.05392201 -0.3106082 -0.1523425
v 0.0559799 -0.3697216 -0.05969246
v -0.05392201 -0.3697216 -0.05969246
v 0.0559799 -0.2770716 -0.0005790495
v -0.05392201 -0.2770716 -0.0005790495
v 0.04707721 -0.2584192 -0.01331727
v -0.04707732 -0.2584192 -0.01331727
v 0.0559799 -0.2179582 -0.09322912
v 0.0559799 -0.2770716 -0.0005790495
v 0.04707721 -0.2262303 -0.0637678
v 0.04707721 -0.2584192 -0.01331727
v -0.05392201 -0.2770716 -0.0005790495
v -0.05392201 -0.2179582 -0.09322912
v -0.04707732 -0.2584192 -0.01331727
v -0.04707732 -0.2262303 -0.0637678
v -0.05392201 -0.2179582 -0.09322912
v 0.0559799 -0.2179582 -0.09322912
v -0.04707732 -0.2262303 -0.0637678
v 0.04707721 -0.2262303 -0.0637678
v 0.04707721 -0.2584192 -0.01331727
v -0.04707732 -0.2584192 -0.01331727
v 0.04500221 -0.173666 0.02863805
v -0.04500233 -0.173666 0.02863805
v 0.04707721 -0.2262303 -0.0637678
v 0.04707721 -0.2584192 -0.01331727
v 0.04500221 -0.1428958 -0.01958877
v 0.04500221 -0.173666 0.02863805
v -0.04707732 -0.2584192 -0.01331727
v -0.04707732 -0.2262303 -0.0637678
v -0.04500233 -0.173666 0.02863805
v -0.04500233 -0.1428958 -0.01958877
v -0.04707732 -0.2262303 -0.0637678
v 0.04707721 -0.2262303 -0.0637678
v -0.04500233 -0.1428958 -0.01958877
v 0.04500221 -0.1428958 -0.01958877
v 0.04500221 -0.173666 0.02863805
v -0.04500233 -0.173666 0.02863805
v 0.0665578 -0.1967705 0.114575
v -0.0665579 -0.1967705 0.114575
v 0.04500221 -0.1428958 -0.01958877
v 0.04500221 -0.173666 0.02863805
v 0.0665578 -0.0914309 -0.01940042
v 0.0665578 -0.1967705 0.114575
v -0.04500233 -0.173666 0.02863805
v -0.04500233 -0.1428958 -0.01958877
v -0.0665579 -0.1967705 0.114575
v -0.0665579 -0.0914309 -0.01940042
v -0.04500233 -0.1428958 -0.01958877
v 0.04500221 -0.1428958 -0.01958877
v -0.0665579 -0.0914309 -0.01940042
v 0.0665578 -0.0914309 -0.01940042
v 0.0665578 -0.1967705 0.114575
v -0.0665579 -0.1967705 0.114575
v 0.1101644 0.005451399 0.242181
v -0.121038 0.005451399 0.242181
v 0.0665578 -0.0914309 -0.01940042
v 0.0665578 -0.1967705 0.114575
v 0.1101644 0.01618562 -0.05815297
v 0.1101644 0.005451399 0.242181
v -0.0665579 -0.1967705 0.114575
v -0.0665579 -0.0914309 -0.01940042
v -0.121038 0.005451399 0.242181
v -0.121038 0.01618562 -0.05815297
v -0.0665579 -0.0914309 -0.01940042
v 0.0665578 -0.0914309 -0.01940042
v -0.121038 0.01618562 -0.05815297
v 0.1101644 0.01618562 -0.05815297
v 0.1101644 0.005451399 0.242181
v -0.121038 0.005451399 0.242181
v 0.1541294 0.0935142 0.2562746
v -0.1541294 0.0935142 0.2562746
v 0.1101644 0.01618562 -0.05815297
v 0.1101644 0.005451399 0.242181
v 0.1541294 0.1055479 -0.07399377
v 0.1541294 0.0935142 0.2562746
v -0.121038 0.005451399 0.242181
v -0.121038 0.01618562 -0.05815297
v -0.1541294 0.0935142 0.2562746
v -0.1541294 0.1055479 -0.07399377
v -0.121038 0.01618562 -0.05815297
v 0.1101644 0.01618562 -0.05815297
v -0.1541294 0.1055479 -0.07399377
v 0.1541294 0.1055479 -0.07399377
v 0.1541294 0.0935142 0.2562746
v -0.1541294 0.0935142 0.2562746
v 0.1976033 0.2275572 0.1834687
v -0.1976033 0.2275572 0.1834687
v 0.1541294 0.1055479 -0.07399377
v 0.1541294 0.0935142 0.2562746
v 0.1976033 0.2541318 -0.07566155
v 0.1976033 0.2275572 0.1834687
v -0.1541294 0.0935142 0.2562746
v -0.1541294 0.1055479 -0.07399377
v -0.1976033 0.2275572 0.1834687
v -0.1976033 0.2541318 -0.07566155
v -0.1541294 0.1055479 -0.07399377
v 0.1541294 0.1055479 -0.07399377
v -0.1976033 0.2541318 -0.07566155
v 0.1976033 0.2541318 -0.07566155
v 0.1976033 0.2275572 0.1834687
v -0.1976033 0.2275572 0.1834687
v 0.05425556 0.2976586 0.1194785
v -0.05425557 0.2976586 0.1194785
v 0.1976033 0.2541318 -0.07566155
v 0.1976033 0.2275572 0.1834687
v 0.05425556 0.2989168 0.05968786
v 0.05425556 0.2976586 0.1194785
v -0.1976033 0.2275572 0.1834687
v -0.1976033 0.2541318 -0.07566155
v -0.05425557 0.2976586 0.1194785
v -0.05425557 0.2989168 0.05968786
v -0.1976033 0.2541318 -0.07566155
v 0.1976033 0.2541318 -0.07566155
v -0.05425557 0.2989168 0.05968786
v 0.05425556 0.2989168 0.05968786
v 0.05425556 0.2976586 0.1194785
v -0.05425557 0.2976586 0.1194785
v 0.05425556 0.3323328 0.1182932
v -0.05425557 0.3323328 0.1182932
v 0.05425556 0.2989168 0.05968786
v 0.05425556 0.2976586 0.1194785
v 0.05425556 0.333591 0.0585026
v 0.05425556 0.3323328 0.1182932
v -0.05425557 0.2976586 0.1194785
v -0.05425557 0.2989168 0.05968786
v -0.05425557 0.3323328 0.1182932
v -0.05425557 0.333591 0.0585026
v -0.05425557 0.2989168 0.05968786
v 0.05425556 0.2989168 0.05968786
v -0.05425557 0.333591 0.0585026
v 0.05425556 0.333591 0.0585026

vn 0 -0.05911341 0.09265007
vn 0 -0.05911341 0.09265007
vn 0 -0.05911341 0.09265007
vn 0 -0.05911341 0.09265007
vn -0.1099019 0 0
vn -0.1099019 0 0
vn -0.1099019 0 0
vn -0.1099019 0 0
vn 0 0.05911341 -0.09265007
vn 0 0.05911341 -0.09265007
vn 0 0.05911341 -0.09265007
vn 0 0.05911341 -0.09265007
vn 0.1099019 0 0
vn 0.1099019 0 0
vn 0.1099019 0 0
vn 0.1099019 0 0
vn 0 0.1098776 0.002312247
vn 0 0.1098776 0.002312247
vn 0 0.1098776 0.002312247
vn 0 0.1098776 0.002312247
vn 0 -0.09265007 -0.05911341
vn 0 -0.09265007 -0.05911341
vn 0 -0.09265007 -0.05911341
vn 0 -0.09265007 -0.05911341
vn 0 0.06198062 0.09075701
vn 0 0.06198061 0.090757
vn 0 0.06198061 0.090757
vn 0 0.06198062 0.09075701
vn 0.07758168 0.06562349 0.04186968
vn 0.07758168 0.06562348 0.04186967
vn 0.0775817 0.06562349 0.04186968
vn 0.07758168 0.06562349 0.04186968
vn -0.08701865 0.05659068 0.03610649
vn -0.08701866 0.05659068 0.03610649
vn -0.08701866 0.05659069 0.03610649
vn -0.08701865 0.05659068 0.03610649
vn 0 0.1058101 0.0297095
vn 0 0.1058101 0.0297095
vn 0 0.1058101 0.0297095
vn 0 0.1058101 0.0297095
vn 0 -0.04875754 0.09849433
vn 0 -0.04875755 0.09849434
vn 0 -0.04875754 0.09849433
vn 0 -0.04875754 0.09849433
vn 0.1098752 0.002044354 0.001304357
vn 0.1098752 0.002044354 0.001304357
vn 0.1098752 0.002044354 0.001304357
vn 0.1098752 0.002044354 0.001304357
vn -0.1098752 0.002044354 0.001304357
vn -0.1098752 0.002044354 0.001304357
vn -0.1098752 0.002044354 0.001304357
vn -0.1098752 0.002044354 0.001304357
vn 0 0.05147706 -0.09710069
vn 0 0.05147706 -0.0971007
vn 0 0.05147706 -0.09710069
vn 0 0.05147706 -0.09710069
vn 0 -0.106133 -0.0285344
vn 0 -0.106133 -0.02853441
vn 0 -0.106133 -0.02853441
vn 0 -0.106133 -0.0285344
vn 0.09504757 -0.04420382 -0.03302139
vn 0.08557 -0.05813944 -0.03709463
vn 0.0970552 -0.04053398 -0.03187029
vn 0.09504757 -0.04420382 -0.03302139
vn -0.09504759 -0.0442038 -0.03302137
vn -0.09846912 -0.04114672 -0.02625279
vn -0.09354442 -0.04534885 -0.03565603
vn -0.09504759 -0.0442038 -0.03302137
vn 0 0.0004022072 -0.1099012
vn 0 0.0004022163 -0.1099012
vn 0 0.0004022163 -0.1099012
vn 0 0.0004022072 -0.1099012
vn 0 -0.05864969 0.09294431
vn 0 -0.05864969 0.09294431
vn 0 -0.05864969 0.09294431
vn 0 -0.05864969 0.09294431
vn 0.106086 -0.02773532 -0.007412562
vn 0.1081 -0.0155803 -0.01225018
vn 0.1016602 -0.04173017 -0.001491475
vn 0.106086 -0.02773532 -0.007412562
vn -0.1041123 -0.03400656 -0.009088617
vn -0.08175729 -0.05773586 -0.04539545
vn -0.1062709 -0.02799869 -0.0010007
vn -0.1041123 -0.03400656 -0.009088617
vn 0 -0.03723494 -0.1034021
vn 0 -0.03723493 -0.1034021
vn 0 -0.03723494 -0.1034021
vn 0 -0.03723494 -0.1034021
vn 0 -0.01736763 0.1085209
vn 0 -0.01736762 0.108521
vn 0 -0.01736763 0.1085209
vn 0 -0.01736763 0.1085209
vn 0.09845282 -0.04880951 -0.001762271
vn 0.09842793 -0.04886025 -0.001746313
vn 0.09847538 -0.04876344 -0.001776754
vn 0.09845282 -0.04880951 -0.001762271
vn -0.1029586 -0.03841915 -0.001387127
vn -0.1029751 -0.03837549 -0.001371576
vn -0.1029436 -0.03845894 -0.001401298
vn -0.1029586 -0.03841915 -0.001387127
vn 0 -0.0191827 -0.1082149
vn 0 -0.0191827 -0.1082149
vn 0 -0.0191827 -0.1082149
vn 0 -0.0191827 -0.1082149
vn 0 0.05245535 0.0965757
vn 0 0.05245535 0.09657571
vn 0 0.05245536 0.09657571
vn 0 0.05245535 0.0965757
vn 0.1048628 -0.03282676 -0.002150303
vn 0.1043319 -0.03452093 -0.00125781
vn 0.1054263 -0.03088202 -0.003167043
vn 0.1048628 -0.03282676 -0.002150303
vn -0.1048628 -0.03282676 -0.002150303
vn -0.1054707 -0.0308721 -0.001124862
vn -0.1038844 -0.03568004 -0.003659093
vn -0.1048628 -0.03282676 -0.002150303
vn 0 -0.001233514 -0.109895
vn 0 -0.00123351 -0.109895
vn 0 -0.00123351 -0.109895
vn 0 -0.001233514 -0.109895
vn 0 0.07409382 0.0811698
vn 0 0.07409382 0.0811698
vn 0 0.07409383 0.0811698
vn 0 0.07409382 0.0811698
vn 0.04263067 0.1009133 0.008806898
vn 0.04434075 0.1000354 0.01025893
vn 0.03464939 0.1042738 0.002194362
vn 0.04263067 0.1009133 0.008806898
vn -0.04263065 0.1009133 0.008806898
vn -0.04144036 0.1012585 0.01038437
vn -0.04752009 0.09907535 0.002084963
vn -0.04263065 0.1009133 0.008806898
vn 0 0.1043385 -0.03452398
vn 0 0.1043385 -0.03452399
vn 0 0.1043385 -0.03452399
vn 0 0.1043385 -0.03452398
vn 0 0.003754684 0.1098378
vn 0 0.003754684 0.1098378
vn 0 0.003754684 0.1098378
vn 0 0.003754684 0.1098378
vn 0.1099019 0 0
vn 0.1099019 0 0
vn 0.1099019 0 0
vn 0.1099019 0 0
vn -0.1099019 0 0
vn -0.1099019 0 0
vn -0.1099019 0 0
vn -0.1099019 0 0
vn 0 -0.003754581 -0.1098378
vn 0 -0.003754581 -0.1098378
vn 0 -0.003754581 -0.1098378
vn 0 -0.003754581 -0.1098378

vt 0 0
vt -1 0
vt 0 1
vt -1 1
vt 0 0
vt -1 0
vt 0 1
vt -1 1
vt 1 0
vt 0 0
vt 1 1
vt 0 1
vt 1 0
vt 0 0
vt 1 1
vt 0 1
vt 0 0
vt 1 0
vt 0 -1
vt 1 -1
vt 0 -1
vt -1 -1
vt 0 0
vt -1 0
vt -0.5093624 2.078937
vt 0.4906376 2.078937
vt -0.4283566 1.873417
vt 0.4283576 1.873417
vt -1.863089 0.3515825
vt -1.863089 1.351583
vt -1.748722 0.6180568
vt -1.748722 1.162584
vt 1.351583 -1.984732
vt 0.3515825 -1.984732
vt 1.162584 -1.882768
vt 0.6180568 -1.882768
vt 0.4906376 -0.2805956
vt -0.5093624 -0.2805956
vt 0.4283576 -0.002159747
vt -0.4283566 -0.002159747
vt 0.4283566 -2.161054
vt -0.4283576 -2.161054
vt 0.4094762 -1.300566
vt -0.4094772 -1.300566
vt -0.6180568 -2.056387
vt -1.162584 -2.056387
vt -0.5490912 -1.200727
vt -1.069618 -1.200727
vt 1.162584 -2.056387
vt 0.6180568 -2.056387
vt 1.069618 -1.200727
vt 0.5490912 -1.200727
vt 0.4283576 -2.090478
vt -0.4283566 -2.090478
vt 0.4094772 -1.232251
vt -0.4094762 -1.232251
vt 0.4094762 0.6619152
vt -0.4094772 0.6619152
vt 0.605611 1.471625
vt -0.6056119 1.471625
vt -0.5490912 -0.8861311
vt -1.069618 -0.8861311
vt -0.2986598 -0.4444946
vt -1.841892 -0.5809836
vt 1.069618 -0.6711277
vt 0.5490912 -0.6711277
vt 1.841892 -0.3585705
vt 0.2986598 -0.239961
vt 0.4094772 -1.300856
vt -0.4094762 -1.300856
vt 0.6056119 -0.8325723
vt -0.605611 -0.8325723
vt 0.605611 -0.9578159
vt -0.6056119 -0.9578159
vt 1.002388 1.217916
vt -1.101327 1.217916
vt -0.3405882 -0.3093815
vt -1.879984 -0.4965432
vt 0.4533559 0.4718109
vt -1.897096 1.504711
vt 1.855049 -0.7995841
vt 0.3122081 -0.6433421
vt 1.855331 1.431905
vt -0.5003801 0.09083548
vt -0.6056119 0.7229227
vt 0.605611 0.7229227
vt -1.101327 -0.317835
vt 1.002388 -0.317835
vt 1.002388 0.3972122
vt -1.101327 0.3972122
vt 1.402427 1.208694
vt -1.402427 1.208694
vt 0.7538286 0.1746446
vt -1.531374 1.676407
vt 1.393358 0.8326381
vt -1.1207 2.482559
vt 1.593662 1.599381
vt -0.7213557 0.144
vt 1.220315 2.380263
vt -1.326544 0.7814401
vt 1.101327 0.2373699
vt -1.002388 0.2373699
vt 1.402427 1.063156
vt -1.402427 1.063156
vt -1.402427 0.3652605
vt 1.402427 0.3652605
vt -1.797997 -1.022697
vt 1.797997 -1.022697
vt 1.27833 0.7317263
vt -1.285856 2.302612
vt 2.068376 1.898067
vt -0.02643917 3.006071
vt 1.255249 2.34019
vt -1.301291 0.7568932
vt -0.007963946 3.038184
vt -2.096533 1.918666
vt 1.402427 0.9678791
vt -1.402427 0.9678791
vt 1.797997 2.319932
vt -1.797997 2.319932
vt -1.797997 -0.4037673
vt 1.797997 -0.4037673
vt -0.4936726 -1.267406
vt 0.4936727 -1.267406
vt -0.9814248 -0.7511536
vt -0.5401029 1.577596
vt 0.6225947 0.1494834
vt 0.7399235 0.6792673
vt 0.4425173 1.568672
vt 0.9135455 -0.7542511
vt -0.8265052 0.6539522
vt -0.7012787 0.1259413
vt 1.797997 0.07279328
vt -1.797997 0.07279328
vt 0.4936727 1.370008
vt -0.4936726 1.370008
vt 0.4936726 2.66968
vt -0.4936727 2.66968
vt 0.4936726 2.985366
vt -0.4936727 2.985366
vt 1.00509 2.585022
vt 0.5402957 2.867994
vt 1.183882 2.845197
vt 0.7190878 3.128168
vt -0.5402957 2.867994
vt -1.00509 2.585022
vt -0.7190878 3.128168
vt -1.183882 2.845197
vt 0.4936727 2.699709
vt -0.4936726 2.699709
vt 0.4936727 3.015394
vt -0.4936726 3.015394

g AvatarMeshCollider
usemtl ProBuilder/Standard_Vertex_Color
f 3/3/3 4/4/4 2/2/2 1/1/1
f 7/7/7 8/8/8 6/6/6 5/5/5
f 11/11/11 12/12/12 10/10/10 9/9/9
f 15/15/15 16/16/16 14/14/14 13/13/13
f 19/19/19 20/20/20 18/18/18 17/17/17
f 23/23/23 24/24/24 22/22/22 21/21/21
f 27/27/27 28/28/28 26/26/26 25/25/25
f 31/31/31 32/32/32 30/30/30 29/29/29
f 35/35/35 36/36/36 34/34/34 33/33/33
f 39/39/39 40/40/40 38/38/38 37/37/37
f 43/43/43 44/44/44 42/42/42 41/41/41
f 47/47/47 48/48/48 46/46/46 45/45/45
f 51/51/51 52/52/52 50/50/50 49/49/49
f 55/55/55 56/56/56 54/54/54 53/53/53
f 59/59/59 60/60/60 58/58/58 57/57/57
f 63/63/63 64/64/64 62/62/62 61/61/61
f 67/67/67 68/68/68 66/66/66 65/65/65
f 71/71/71 72/72/72 70/70/70 69/69/69
f 75/75/75 76/76/76 74/74/74 73/73/73
f 79/79/79 80/80/80 78/78/78 77/77/77
f 83/83/83 84/84/84 82/82/82 81/81/81
f 87/87/87 88/88/88 86/86/86 85/85/85
f 91/91/91 92/92/92 90/90/90 89/89/89
f 95/95/95 96/96/96 94/94/94 93/93/93
f 99/99/99 100/100/100 98/98/98 97/97/97
f 103/103/103 104/104/104 102/102/102 101/101/101
f 107/107/107 108/108/108 106/106/106 105/105/105
f 111/111/111 112/112/112 110/110/110 109/109/109
f 115/115/115 116/116/116 114/114/114 113/113/113
f 119/119/119 120/120/120 118/118/118 117/117/117
f 123/123/123 124/124/124 122/122/122 121/121/121
f 127/127/127 128/128/128 126/126/126 125/125/125
f 131/131/131 132/132/132 130/130/130 129/129/129
f 135/135/135 136/136/136 134/134/134 133/133/133
f 139/139/139 140/140/140 138/138/138 137/137/137
f 143/143/143 144/144/144 142/142/142 141/141/141
f 147/147/147 148/148/148 146/146/146 145/145/145
f 151/151/151 152/152/152 150/150/150 149/149/149

